<svg width="512" height="512" viewBox="0 0 512 512" xmlns="http://www.w3.org/2000/svg">
  <!-- 배경 -->
  <rect width="512" height="512" rx="80" fill="#3b82f6"/>
  
  <!-- 메인 아이콘 요소 -->
  <g transform="translate(256, 256)">
    <!-- 중앙 원형 배경 -->
    <circle cx="0" cy="0" r="180" fill="#ffffff" opacity="0.2"/>
    
    <!-- 책 아이콘 -->
    <g transform="translate(-40, -40)">
      <rect x="10" y="20" width="60" height="40" rx="4" fill="#ffffff" opacity="0.9"/>
      <rect x="15" y="25" width="50" height="30" rx="2" fill="#3b82f6"/>
      <line x1="25" y1="35" x2="55" y2="35" stroke="#ffffff" stroke-width="2"/>
      <line x1="25" y1="42" x2="50" y2="42" stroke="#ffffff" stroke-width="2"/>
      <line x1="25" y1="49" x2="45" y2="49" stroke="#ffffff" stroke-width="2"/>
    </g>
    
    <!-- 별 요소들 -->
    <g fill="#fbbf24" opacity="0.8">
      <polygon points="80,0 84,12 96,12 87,20 91,32 80,25 69,32 73,20 64,12 76,12" transform="rotate(0)"/>
      <polygon points="70,60 72,66 78,66 74,70 76,76 70,73 64,76 66,70 62,66 68,66" transform="rotate(45)"/>
      <polygon points="-80,-20 -78,-14 -72,-14 -76,-10 -74,-4 -80,-7 -86,-4 -84,-10 -88,-14 -82,-14" transform="rotate(90)"/>
    </g>
    
    <!-- 하트 요소 -->
    <g transform="translate(-70, 60)" fill="#ef4444" opacity="0.7">
      <path d="M12 21.35l-1.45-1.32C5.4 15.36 2 12.28 2 8.5 2 5.42 4.42 3 7.5 3c1.74 0 3.41.81 4.5 2.09C13.09 3.81 14.76 3 16.5 3 19.58 3 22 5.42 22 8.5c0 3.78-3.4 6.86-8.55 11.54L12 21.35z" transform="scale(0.8)"/>
    </g>
    
    <!-- 텍스트 요소 -->
    <text x="0" y="100" text-anchor="middle" fill="#ffffff" font-family="Arial, sans-serif" font-size="28" font-weight="bold">
      똑똑한 아이들
    </text>
    <text x="0" y="125" text-anchor="middle" fill="#ffffff" font-family="Arial, sans-serif" font-size="14" opacity="0.8">
      Learning App
    </text>
  </g>
</svg>